REM DIRINDEX 1\2,1\3
REM DIRNAME cjc039,folder01,folder02
TITLE ""
FILE "1861-1880.mp3" MP3
  TRACK 01 AUDIO
    TITLE "0:"
    INDEX 01 00:00:00
  TRACK 02 AUDIO
    TITLE "2:cjc039_2721"
    INDEX 01 00:00:27
  TRACK 03 AUDIO
    TITLE "0:"
    INDEX 01 00:01:48
  TRACK 04 AUDIO
    TITLE "3:cjc039_2722"
    INDEX 01 00:02:26
  TRACK 05 AUDIO
    TITLE "0:"
    INDEX 01 00:05:36
  TRACK 06 AUDIO
    TITLE "2:cjc039_2723"
    INDEX 01 00:07:09
  TRACK 07 AUDIO
    TITLE "0:"
    INDEX 01 00:08:38
  TRACK 08 AUDIO
    TITLE "3:cjc039_2724"
    INDEX 01 00:09:14
  TRACK 09 AUDIO
    TITLE "0:"
    INDEX 01 00:13:24
  TRACK 10 AUDIO
    TITLE "2:cjc039_2725"
    INDEX 01 00:14:72
  TRACK 11 AUDIO
    TITLE "0:"
    INDEX 01 00:16:08
  TRACK 12 AUDIO
    TITLE "3:cjc039_2726"
    INDEX 01 00:16:59
  TRACK 13 AUDIO
    TITLE "0:"
    INDEX 01 00:20:06
  TRACK 14 AUDIO
    TITLE "2:cjc039_2727"
    INDEX 01 00:21:57
  TRACK 15 AUDIO
    TITLE "0:"
    INDEX 01 00:23:10
  TRACK 16 AUDIO
    TITLE "3:cjc039_2728"
    INDEX 01 00:23:59
  TRACK 17 AUDIO
    TITLE "0:"
    INDEX 01 00:27:47
  TRACK 18 AUDIO
    TITLE "2:cjc039_2729"
    INDEX 01 00:29:19
  TRACK 19 AUDIO
    TITLE "0:"
    INDEX 01 00:30:24
  TRACK 20 AUDIO
    TITLE "3:cjc039_2730"
    INDEX 01 00:31:02
  TRACK 21 AUDIO
    TITLE "0:"
    INDEX 01 00:34:63
  TRACK 22 AUDIO
    TITLE "2:cjc039_2731"
    INDEX 01 00:36:38
  TRACK 23 AUDIO
    TITLE "0:"
    INDEX 01 00:38:02
  TRACK 24 AUDIO
    TITLE "3:cjc039_2732"
    INDEX 01 00:38:53
  TRACK 25 AUDIO
    TITLE "0:"
    INDEX 01 00:42:00
  TRACK 26 AUDIO
    TITLE "2:cjc039_2733"
    INDEX 01 00:43:52
  TRACK 27 AUDIO
    TITLE "0:"
    INDEX 01 00:44:71
  TRACK 28 AUDIO
    TITLE "3:cjc039_2734"
    INDEX 01 00:45:47
  TRACK 29 AUDIO
    TITLE "0:"
    INDEX 01 00:49:06
  TRACK 30 AUDIO
    TITLE "2:cjc039_2735"
    INDEX 01 00:50:60
  TRACK 31 AUDIO
    TITLE "0:"
    INDEX 01 00:52:20
  TRACK 32 AUDIO
    TITLE "3:cjc039_2736"
    INDEX 01 00:53:00
  TRACK 33 AUDIO
    TITLE "0:"
    INDEX 01 00:57:41
  TRACK 34 AUDIO
    TITLE "2:cjc039_2737"
    INDEX 01 00:59:20
  TRACK 35 AUDIO
    TITLE "0:"
    INDEX 01 01:00:39
  TRACK 36 AUDIO
    TITLE "3:cjc039_2738"
    INDEX 01 01:01:15
  TRACK 37 AUDIO
    TITLE "0:"
    INDEX 01 01:04:39
  TRACK 38 AUDIO
    TITLE "2:cjc039_2739"
    INDEX 01 01:06:14
  TRACK 39 AUDIO
    TITLE "0:"
    INDEX 01 01:07:41
  TRACK 40 AUDIO
    TITLE "3:cjc039_2740"
    INDEX 01 01:08:19
  TRACK 41 AUDIO
    TITLE "0:"
    INDEX 01 01:11:68
  TRACK 42 AUDIO
    TITLE "2:cjc039_2741"
    INDEX 01 01:13:45
  TRACK 43 AUDIO
    TITLE "0:"
    INDEX 01 01:14:65
  TRACK 44 AUDIO
    TITLE "3:cjc039_2742"
    INDEX 01 01:15:40
  TRACK 45 AUDIO
    TITLE "0:"
    INDEX 01 01:18:72
  TRACK 46 AUDIO
    TITLE "2:cjc039_2743"
    INDEX 01 01:20:53
  TRACK 47 AUDIO
    TITLE "0:"
    INDEX 01 01:22:05
  TRACK 48 AUDIO
    TITLE "3:cjc039_2744"
    INDEX 01 01:22:56
  TRACK 49 AUDIO
    TITLE "0:"
    INDEX 01 01:26:72
  TRACK 50 AUDIO
    TITLE "2:cjc039_2745"
    INDEX 01 01:28:45
  TRACK 51 AUDIO
    TITLE "0:"
    INDEX 01 01:29:66
  TRACK 52 AUDIO
    TITLE "3:cjc039_2746"
    INDEX 01 01:30:44
  TRACK 53 AUDIO
    TITLE "0:"
    INDEX 01 01:33:50
  TRACK 54 AUDIO
    TITLE "2:cjc039_2747"
    INDEX 01 01:35:29
  TRACK 55 AUDIO
    TITLE "0:"
    INDEX 01 01:36:39
  TRACK 56 AUDIO
    TITLE "3:cjc039_2748"
    INDEX 01 01:37:15
  TRACK 57 AUDIO
    TITLE "0:"
    INDEX 01 01:40:40
  TRACK 58 AUDIO
    TITLE "2:cjc039_2749"
    INDEX 01 01:42:18
  TRACK 59 AUDIO
    TITLE "0:"
    INDEX 01 01:43:39
  TRACK 60 AUDIO
    TITLE "3:cjc039_2750"
    INDEX 01 01:44:17
  TRACK 61 AUDIO
    TITLE "0:"
    INDEX 01 01:47:56
  TRACK 62 AUDIO
    TITLE "2:cjc039_2751"
    INDEX 01 01:49:33
  TRACK 63 AUDIO
    TITLE "0:"
    INDEX 01 01:50:47
  TRACK 64 AUDIO
    TITLE "3:cjc039_2752"
    INDEX 01 01:51:27
  TRACK 65 AUDIO
    TITLE "0:"
    INDEX 01 01:55:15
  TRACK 66 AUDIO
    TITLE "2:cjc039_2753"
    INDEX 01 01:56:65
  TRACK 67 AUDIO
    TITLE "0:"
    INDEX 01 01:58:05
  TRACK 68 AUDIO
    TITLE "3:cjc039_2754"
    INDEX 01 01:58:58
  TRACK 69 AUDIO
    TITLE "0:"
    INDEX 01 02:01:60
  TRACK 70 AUDIO
    TITLE "2:cjc039_2755"
    INDEX 01 02:03:34
  TRACK 71 AUDIO
    TITLE "0:"
    INDEX 01 02:04:47
  TRACK 72 AUDIO
    TITLE "3:cjc039_2756"
    INDEX 01 02:05:27
  TRACK 73 AUDIO
    TITLE "0:"
    INDEX 01 02:09:03
  TRACK 74 AUDIO
    TITLE "2:cjc039_2757"
    INDEX 01 02:10:53
  TRACK 75 AUDIO
    TITLE "0:"
    INDEX 01 02:11:63
  TRACK 76 AUDIO
    TITLE "3:cjc039_2758"
    INDEX 01 02:12:42
  TRACK 77 AUDIO
    TITLE "0:"
    INDEX 01 02:15:11
  TRACK 78 AUDIO
    TITLE "2:cjc039_2759"
    INDEX 01 02:16:66
  TRACK 79 AUDIO
    TITLE "0:"
    INDEX 01 02:18:29
  TRACK 80 AUDIO
    TITLE "3:cjc039_2760"
    INDEX 01 02:19:01
  TRACK 81 AUDIO
    TITLE "0:"
    INDEX 01 02:22:23
